# xmcd
#
# Track frame offsets: 
#        150
#        15288
#        37510
#        52935
#        71881
#        86937
#        105754
#        124200
#        139732
#        161460
#
# Disc length: 2393 seconds
#
# Revision: 0
# Processed by: cddbd v1.5.2PL0 Copyright (c) Steve Scherf et al.
# Submitted via: ExactAudioCopyFreeDBPlugin 1.0
#
DISCID=7209570a
DTITLE=Sweet Pea Atkinson - Get What You Deserve
DYEAR=2017
DGENRE=Soul
TTITLE0=Are You Lonely for Me Baby
TTITLE1=Slow Down
TTITLE2=Am I Grooving You
TTITLE3=Ain't No Love in the Heart of the City
TTITLE4=You Can Have Watergate (fet. Mindi Abair)
TTITLE5=Yor're Welcome, Stop On By
TTITLE6=Just Lookin'
TTITLE7=Just Another Lonely Night
TTITLE8=Last Two Dollars
TTITLE9=Get What You Deserve
EXTD=
EXTT0=
EXTT1=
EXTT2=
EXTT3=
EXTT4=
EXTT5=
EXTT6=
EXTT7=
EXTT8=
EXTT9=
PLAYORDER=
